<?xml version="1.0" encoding="UTF-8"?>
<svg version="1.1" viewBox="0 0 2048 1173" width="1280" height="1280" xmlns="http://www.w3.org/2000/svg">
<path transform="translate(977,126)" d="m0 0h19l14 4 10 7 7 6 11 14 9 13 8 10 13 15 8 7 16 11 17 10 23 11 19 7 16 4 21 3 16 1 15 5 11 7 12 12 6 10 4 13 1 9v12l-3 14-13 29-5 15-3 14-3 25v44l4 20 6 18 11 27 5 17 1 7v10l-2 10-5 10-10 14-7 6-15 8-9 2-26 2-16 3-29 9-25 12-16 10-13 9-9 7-15 15-11 14-9 11-8 10-6 7-10 7-11 4-17 2-14-1-12-4-12-9-12-13-13-17-8-10-17-17-15-11-16-10-18-10-17-7-16-5-14-3-35-3-12-3-11-6-9-9-9-15-4-8-2-8v-13l3-16 8-20 7-16 4-12 5-29 1-9v-15l-2-24-4-26-4-15-15-37-3-12v-13l3-13 8-16 12-13 11-7 13-4 6-1h9l17 3 12 5 11 7 7 8 6 10 4 11 2 12-1 15-5 15-14 31-4 18-4 28-1 12v18l3 24 5 23 6 16 10 19 9 12 9 10 13 12 10 8 13 10 17 10 20 9 25 9 15 3 13 1h21l14-2 24-8 19-8 16-8 11-7 19-14 11-9 10-9 6-7 9-15 10-19 5-15 5-22 2-22v-17l-2-26-4-25-7-21-11-21-12-16-8-9-8-7-21-16-15-10-25-12-21-7h-4l-4 25v45l3 25 2 10 11 29 12 30 1 10-5 19-7 14-12 13-13 8-15 5-10 1-15-2-12-5-10-6-10-10-7-11-5-15-2-7v-12l4-12 13-31 6-18 3-16 2-18v-37l-3-24-5-19-13-32-6-17-2-10 1-9 5-14 6-11 9-11 11-9 13-6z" fill="#AAF262"/>
<path transform="translate(252,799)" d="m0 0h71l11 2 6 7 2 6 1 7v14l-3 10-9 10-13 9 1 4 5 5 11 10 5 4 1 6-10 1-10-2-9-5-10-9-8-7-8-6-11-6-5-4 1-8 6-2h29l11-2 5-5 3-8-1-9-2-2-4-1-43-2h-8v36l1 3-1 34-4 4h-7l-5-2-2-3-1-14v-25l2-44z" fill="#131213"/>
<path transform="translate(1604,799)" d="m0 0h24l4 4 1 10v78l-2 1h-13l-2-3-2-18-52-1h-3l-2 21-2 2h-10l-4-2-2-6v-37l2-15 7-14 9-10 8-6 5-2 8-1zm-22 17-11 2-6 4-5 8-2 9v12l1 1 13 1h42l2-3v-28l-1-3-4-2-8-1z" fill="#111011"/>
<path transform="translate(1166,799)" d="m0 0h65l2 6v7l-3 5h-64l-1 11 3 9 2 1h45l10 2 7 4 5 5 2 6 2 14-3 9-9 10-6 4-4 1h-71l-1-10 4-10h62l7-3 1-2v-9l-3-3-9-1-41-1-9-2-6-5-5-12v-13l4-11 4-6z" fill="#151415"/>
<path transform="translate(525,799)" d="m0 0h59l3 3 1 8-2 7h-63l-2 3v11l3 6 1 1h47l11 3 5 4 5 8 2 6v14l-5 10-9 8-2 1-9 1h-62l-4-2-1-2v-9l3-6h59l9-2 2-5-1-8-4-4-46-1-9-2-8-7-4-8-1-5v-10l4-11 6-7 8-4z" fill="#131213"/>
<path transform="translate(955,797)" d="m0 0h30l13 3 11 6 6 7 5 12 2 10v20l-2 11-7 14-9 9-10 4-12 2h-30l-11-4-9-7-8-13-3-10-1-7v-20l4-13 6-9 8-8 12-6zm1 18-10 3-5 6-2 6-1 9v16l3 12 5 6 8 3 7 1h21l13-4 7-8 3-7 1-9-2-17-3-7-7-6-8-3-7-1z" fill="#171617"/>
<path transform="translate(128,799)" d="m0 0h61l2 2v14l-4 2h-63l-1 5v8l3 7 2 1h48l9 2 6 4 5 6 2 6 1 12-2 9-4 6-8 7-4 2-15 1h-35l-22-1-4-3v-7l4-7 2-1 61-1 6-3 2-5-1-7-1-2-10-2h-38l-10-2-6-4-5-6-4-10v-8l4-11 4-6 5-4 6-3z" fill="#141314"/>
<path transform="translate(1731,799)" d="m0 0 14 1 2 2v22l-1 56v11l-3 2h-9l-5-3-19-19-7-8-13-13-7-8-9-10v-2h-2l-1 39-1 21-2 2h-14l-2-2-1-5v-57l1-22 2-6h8l6 3 17 16 8 8 7 8 9 9 7 8 5 6 5 3 2-59z" fill="#131213"/>
<path transform="translate(1043,798)" d="m0 0 7 1 8 7 13 13 7 8 8 9 8 7 15 16 6 4-1-58 2-6 2-1h8l3 1 1 2 1 9v80l-1 3-7 1-10-6-22-22-7-8-9-9-7-8-9-9-4-2v62l-2 1h-11l-3-3-1-3v-81l3-7z" fill="#141314"/>
<path transform="translate(1257,798)" d="m0 0 11 1 2 3 1 50 3 13 4 5 4 2 13 2h30l1-1 1-69 2-4 3-1h8l4 2 1 5 1 51v30l-5 5-3 1h-43l-15-2-10-5-7-7-7-12-3-9-2-14v-41l2-4z" fill="#100F10"/>
<path transform="translate(400,799)" d="m0 0 9 1 2 1v43l3 16 5 8 10 5 16 2h12l9-2 2-6v-65l3-2 13-1 3 3 1 33v23l-2 30-4 4-7 1h-43l-16-4-8-6-6-7-6-12-3-15v-42l3-6z" fill="#171616"/>
<path transform="translate(848,799)" d="m0 0h60l1 2v14l-1 3h-17l-45-1-2 1-1 15v35l1 6h63l3 2 2 10-2 7-5 1-64-1-8-4-6-9-3-13v-43l3-12 4-7 8-4z" fill="#141314"/>
<path transform="translate(1782,799)" d="m0 0h64l3 4v13l-1 1h-64l-2 9-1 23v17l1 7 8 1 40 1h14l4 4 1 3v7l-4 4h-58l-11-1-8-7-4-9-2-15v-18l2-24 4-12 7-6z" fill="#111011"/>
<path transform="translate(1865,798)" d="m0 0 10 1 2 3 1 30 1 8 7 3 23 2h11l8-2 5-5 2-9v-25l2-6h9l5 3 2 4v19l-2 16-5 10-9 8-11 4-9 3-2 7-1 14-3 6-7 2-5-2-2-4v-20l-3-3-18-6-10-7-4-5-3-9v-30l3-9z" fill="#111011"/>
<path transform="translate(1442,799)" d="m0 0h86l4 2 1 2v11l-2 3-35 1v70l-2 5h-12l-3-4-2-69-1-1-7-1-26-1-2-1v-14z" fill="#1D1C1D"/>
<path transform="translate(1376,799)" d="m0 0 5 1 1 2v72l65 1 3 7v11h-80l-5-4-2-7v-79l1-2z" fill="#151414"/>
<path transform="translate(685,799)" d="m0 0h87l1 2v14l-7 2h-30v19l-1 55-4 2h-9l-3-2-1-10-1-63-32-1-3-1-3-6 2-6z" fill="#1C1B1B"/>
<path transform="translate(567,976)" d="m0 0h5l5 6 4 10 7 32 2 2 6-12 7-21 8-16 6-1 3 3 4 13 4 10 4 19 3 5 3-4 4-13 5-20 4-8 4-4h4l2 7-4 11-8 29-6 14-5 5h-6l-4-6-7-22-3-13-2-3-4 2-3 4-5 19-8 18-2 2-5-1-4-5-10-27-7-23-2-11z" fill="#161516"/>
<path transform="translate(213,799)" d="m0 0h16l2 2 1 90-1 1h-17l-3-5 1-85z" fill="#111011"/>
<path transform="translate(1011,974)" d="m0 0h6l4 3v18l1 10v27l-3 8-10 5-7 2h-13l-8-4-7-7-5-10-2-6v-7l4-8 7-8 6-3 5-1h11l11 1-1-18zm-17 27-11 4-4 5-2 11 3 8 9 8 7 2 7-2 6-7 2-12-2-13-5-4z" fill="#181718"/>
<path transform="translate(772,975)" d="m0 0h6l4 3v9l1 5h21l9 3 7 6 6 12v10l-4 10-7 8-9 5-4 1h-8l-10-2-8-4-4-7-1-12v-15l1-15zm16 25-4 2-2 9v15l4 8 7 5 9-1 6-4 5-6 2-5v-10l-8-9-10-4z" fill="#161616"/>
<path transform="translate(654,798)" d="m0 0 13 1 1 2 1 18v73l-1 1h-13l-3-2-1-12v-77l1-3z" fill="#141314"/>
<path transform="translate(363,799)" d="m0 0h9l4 2 1 49v38l-3 5-6 1-7-3-2-3-1-82 1-6z" fill="#0D0C0D"/>
<path transform="translate(1465,990)" d="m0 0 10 1 9 6 6 9 1 2v16l-3 11-8 9-9 4h-9l-10-5-8-9-4-10 1-12 5-10 4-5 9-5zm1 7-8 9-5 10-1 5 2 7 3 2v6l3 3h10l6-5 4-11-1-8-6-15-4-3z" fill="#E8E8E4"/>
<path transform="translate(694,990)" d="m0 0h8l10 5 8 9 3 7v13l-4 11-7 8-8 5h-9l-9-4-8-7-6-10-1-3v-9l5-12 7-8 8-4zm2 8-5 4-4 8-1 4v17l4 7 3 2h7l7-4 7-8 1-6-6-7-2-9-5-7z" fill="#181717"/>
<path transform="translate(1293,990)" d="m0 0h10l8 4 6 7 4 9v15l-2 8-4 6-9 8-2 1h-12l-8-4-7-7-5-10v-14l4-12 7-7zm4 8-6 4-4 5-3 12v8l2 7 5 5 7 1 7-3 4-5 2-5-1-9-2-3-3-13-3-4z" fill="#E8E8E4"/>
<path transform="translate(1134,991)" d="m0 0h12l9 5 7 8 4 9v10l-4 10-6 7-9 6-5 2h-7l-8-3-10-9-6-12-1-8 3-8 11-12zm1 9-7 4-6 9-1 10 4 8 7 6 2 1h8l7-4 4-7 1-3v-11l-4-8-6-5z" fill="#E2E2DE"/>
<path transform="translate(848,993)" d="m0 0 4 1 1 30 4 10 6 4 7-1 6-5 2-6 1-7-1-26h7l4 5 2 10v22l-3 8-5 5-9 4-9 1-9-2-6-4-4-5-3-7-1-7v-18l2-9z" fill="#232222"/>
<path transform="translate(1371,993)" d="m0 0 15 1 5 3 3 7 5 23 7 3 7-21 4-13 2-3 5 1 1 2-1 13-6 18-7 14-3 3-8-1-5-8-8-17-6-17-3-5-9-1z" fill="#100F10"/>
<path transform="translate(1077,979)" d="m0 0 14 2 2 2v21l-2 7v29l-2 3-5 1-4-2-2-7 1-11v-7l-4-20v-15z" fill="#0E0D0E"/>
<path transform="translate(680,998)" d="m0 0 8 8-1 8v17l3 5v2l3 1h7l7-4 2 1v3l4-5 2 1-4 6-6 5-1 2h-9l-9-4-8-7-6-10-1-3v-9l5-12z" fill="#0F0E0F"/>
<path transform="translate(1465,990)" d="m0 0 10 1 9 6 6 9 1 2v15h-2l-4-8-4-4-5-1-4-10-3-2-4 1-6 7-1 3h-4l-8 13-5 5-1-9 2-9 6-10 8-6z" fill="#0D0C0D"/>
<path transform="translate(1230,990)" d="m0 0h9l7 3 4 5 2 10v6l-16-16-5-1-3 3 1 9 5 2 3 4v7l-4 3-4-1-7-6-8-4-1-9 2-7 5-4z" fill="#FBFBFA"/>
<path transform="translate(1352,993)" d="m0 0h14v3l-9 8-4 7-3 12-1 21-5 1-4-5v-34l2-9 4-3z" fill="#0F0E0F"/>
<path transform="translate(943,974)" d="m0 0 7 1 1 52 1 16-3 3-4-1-3-4-1-19v-37l1-10z" fill="#2E2E2E"/>
<path transform="translate(911,974)" d="m0 0 6 1 2 4-2 10 2 7 1 15v29l-3 5-5-1-2-3v-30l1-19 1-7-2-5v-5z" fill="#0D0C0D"/>
<path transform="translate(1245,1013)" d="m0 0 5 3 4 5 1 5v7l-4 8-7 5-10 2-8-2-9-6-4-5-2-6v-6l7 6 12 10h10l2-6 2-18z" fill="#252425"/>
<path transform="translate(1289,996)" d="m0 0 5 2-3 5-4 7-2 9v8l2 7 4 4 7 1 7-3 4-6h2v-2h2l2 6-7 2-6 12h-10l-8-4-7-7-2-3 1-11-1-3 4-12 9-7z" fill="#0D0C0D"/>
<path transform="translate(1158 1e3)" d="m0 0 3 1 5 11v10l-4 10-6 7-9 6-5 2h-7v-3l3-3 7-3 6-9 2-6 1-15 2-5z" fill="#171617"/>
<path transform="translate(655,977)" d="m0 0h4l2 7-4 11-8 29-3 8-3-3-5-7 4-13 5-20 4-8z" fill="#0D0C0D"/>
<path transform="translate(1654,800)" d="m0 0h5l-1 6-3 7 1 41 1 13 6 15-1 10h-8l-2-2-1-5v-57l1-22z" fill="#E6E6E2"/>
<path transform="translate(878,993)" d="m0 0h7l4 5 2 10v22l-3 8-5 5-6 3-3-1 4-3h4l1-11-5-5 1-7z" fill="#E1E1DD"/>
<path transform="translate(1083,989)" d="m0 0h1l1 19 3 14 2 1 1 17-2 3-5 1-4-2-2-7 1-11v-7l-2-12 3-10z" fill="#E4E4E0"/>
<path transform="translate(978 1e3)" d="m0 0 4 1-1 5-2 4-1 8 3 8 7 6 3 7 9 4v1h-11l-8-4-7-7-5-10-1-6 4-4 3-9z" fill="#0F0E0F"/>
<path transform="translate(788,992)" d="m0 0h16l9 3 7 6 3 6h-4l1 17-6 1v-12l-7-8-10-4-5-1-1-4z" fill="#FBFBFB"/>
<path transform="translate(1342,800)" d="m0 0 2 1 1 5 1 51v30l-3 4h-2l-1-8 1-4v-66z" fill="#E5E5E1"/>
<path transform="translate(1257,798)" d="m0 0 11 1 2 3v36h-2v5h-2l-2-7-2-28-2-3-2 2-5 2-2 2v-8l2-4z" fill="#E6E6E2"/>
<path transform="translate(1134,991)" d="m0 0h12l9 5 4 5-3 4-2 8-6-9-4-3h-9l-5 2-2-1-3 4-3-1 1-8 8-5z" fill="#F6F6F5"/>
<path transform="translate(1744,801)" d="m0 0 3 1v22l-1 56v11l-3 2h-6l6-10v-21l-1-7-1-50z" fill="#0F0E0F"/>
<path transform="translate(772,975)" d="m0 0h6l4 3v9l1 5h5l5 5-1 3-7 2-3 11-4 7-4-4 1-6 2-6v-16l-3-9h-2z" fill="#181718"/>
<path transform="translate(1316 1e3)" d="m0 0 3 4 2 5v15l-2 8-4 6-9 8-4 1 3-9 4-5h6l-2-6h-2l-1 2 2-12 2-6 1-8h-2v-2z" fill="#FEFEFE"/>
<path transform="translate(1735,799)" d="m0 0 10 1-3 5 1 50 1 7v21l-6 9-4 1 5-7 1-5v-17l-1-10-1-34z" fill="#F6F6F4"/>
<path transform="translate(1765,816)" d="m0 0 1 4v11l2 27 3 20 7 12 2 2-6-1-7-8-3-7-2-15v-18l2-24z" fill="#F4F4F2"/>
<path transform="translate(772,979)" d="m0 0h2l4 9v16l-3 9 1 5h2l4-5v12l-5 5-3 7-2-3-1-12v-15l1-15z" fill="#F8F8F7"/>
<path transform="translate(1371,993)" d="m0 0 15 1 5 3 3 7 4 22-3-2-6-1-8-22-3-5-9-1z" fill="#181718"/>
<path transform="translate(718 1e3)" d="m0 0 3 3 2 5v13l-4 11-7 8-6 4-2-1 8-7 1-4-5 5-1-2 2-5 4-5 1-6-2-4 2-4h2l1-10z" fill="#EBEBE8"/>
<path transform="translate(1229,993)" d="m0 0 4 1-5 6 1 9 5 2 3 4v7l-4 3-4-1-4-6-9-6 2-5 6-9z" fill="#0F0E0F"/>
<path transform="translate(1622,799)" d="m0 0h6l4 4 1 10v76l-2-3-1-9v-36l-2-30-3-7z" fill="#F5F5F3"/>
<path transform="translate(1454,1008)" d="m0 0 3 1-4 11 1 8 4 2-1 7-5 4-4-2-6-9-1-3 8-11z" fill="#E6E6E2"/>
<path transform="translate(567,976)" d="m0 0h5l5 6 4 10-1 5-2 6-1 8h-2l-7-23-2-11z" fill="#FAFAF9"/>
<path transform="translate(911,974)" d="m0 0 6 1 2 4-2 10 2 7 1 15v15l-2-3-4-14-3-17 1-7-2-5v-5z" fill="#F9F9F9"/>
<path transform="translate(1477,1010)" d="m0 0 5 1 6 7 1 5 2 1-3 11-6 7h-1l-1-14-2-1 1-9z" fill="#F9F9F8"/>
<path transform="translate(1211,1023)" d="m0 0 7 6 13 11 6 3-1 5-10-2-9-6-4-5-2-6z" fill="#272627"/>
<path transform="translate(471,800)" d="m0 0 2 4-1 12v32l-1 20-3 13-2-4 2-10v-65z" fill="#F6F6F5"/>
<path transform="translate(504,877)" d="m0 0 3 4 3 5 2 1 12 1 10-1 3-1 3 1h11l5-1v4l-5 1h-17l-7 1h-14l-3-1v-2l-3 1-2 2-2-3v-9z" fill="#E6E6E2"/>
<path transform="translate(1477,815)" d="m0 0h3l1 2v65l3 6 3 3v2h-5l-3-4-2-69-1-3z" fill="#F5F5F4"/>
<path transform="translate(1651,830)" d="m0 0 2 3 1 28 2 14 4 17h-6l-2-2-1-5z" fill="#0D0C0D"/>
<path transform="translate(1311,1028)" d="m0 0h2l2 6-7 2-6 12h-10l-8-4 1-8 2-2 4 4 7 1 7-3 4-6h2z" fill="#121112"/>
<path transform="translate(363,799)" d="m0 0 2 1-2 7-1 11-1 25v15l1 27 1 7-4-4-1-82 1-6z" fill="#E6E6E2"/>
<path transform="translate(1011,974)" d="m0 0h6l4 3v18l1 18-4-2-4-29-3-6z" fill="#FBFBFA"/>
<path transform="translate(1467,991)" d="m0 0 4 2 5 6 7 3-1 7 8-2 1 1v15h-2l-4-8-4-4-5-1-4-10-5-5z" fill="#0E0D0E"/>
<path transform="translate(982,995)" d="m0 0 4 1 4 5v2l-8 3-1-2-4 1-2 3-3 10-2 2h-3v-7l4-8 7-8z" fill="#282828"/>
<path transform="translate(1465,990)" d="m0 0 10 1 9 6 6 9-1 2-7 1 1-7-7-2-7-8-2-1 1 6-7 6-3 3 2-9 4-5z" fill="#F6F6F5"/>
<path transform="translate(252,799)" d="m0 0h2v7l-2 6-1 23v40l2 12 2 5-4-1-2-3-1-14v-25l2-44z" fill="#EDEDEB"/>
<path transform="translate(401,870)" d="m0 0 4 2 8 10 7 6 7 1h8l9-2 2-2h3l3 6h-5v-2l-6 3-9 1-16-4-8-6-6-7-2-5z" fill="#F8F8F7"/>
<path transform="translate(880,1017)" d="m0 0 5 2 2 3v6l4-1-2 9-4 6-8 4-3-1 4-3h4l1-11-5-5z" fill="#E6E6E2"/>
<path transform="translate(160,887)" d="m0 0h17v3l-17 1h-39l-1-3z" fill="#E9E9E5"/>
<path transform="translate(978 1e3)" d="m0 0 4 1-1 5-2 4-2 7-2 2v14l-4-5-3-8v-3l4-4 3-9z" fill="#EAEAE7"/>
<path transform="translate(668,819)" d="m0 0h1v73l-3 1v-44z" fill="#F4F4F2"/>
<path transform="translate(713,1034)" d="m0 0 2 1-4 6-6 5-1 2h-9l-3-1-2-9 3 1h7l7-4 2 1v3z" fill="#111011"/>
<path transform="translate(781,1025)" d="m0 0 2 1 4 8v4l-5 5-5-1-3-4 1-7 4-5z" fill="#0D0C0D"/>
<path transform="translate(1741,814)" d="m0 0h1l1 41 1 7v21l-6 9-4 1 5-7 1-5v-27z" fill="#E8E8E4"/>
<path transform="translate(1147,1034)" d="m0 0v3l-3 4-7 3-3 3-5-1-7-5 1-3 7-3 4 2h8z" fill="#F9F9F8"/>
<path transform="translate(712,998)" d="m0 0 4 1 2 2-1 11-1 2h-2l-1 4-4-2-1-1-1-10 3-5z" fill="#0E0D0E"/>
<path transform="translate(826,815)" d="m0 0h1l-1 30 1 2 2 28v7l-2-2-3-13v-43z" fill="#F4F4F3"/>
<path transform="translate(1311,997)" d="m0 0 4 1 1 4h-3v2h2v8l-3 9h-2l-3-6-1-11z" fill="#0E0D0E"/>
<path transform="translate(222,809)" d="m0 0h1v12l-3 25-2 3-2-6v-12l2-11z" fill="#E6E6E2"/>
<path transform="translate(1312,1018)" d="m0 0h1l2 6 2 1-1 3-2-1 4 6-2 5-7 7-5 3h-2l3-9 4-5h6l-2-6h-2l-1 2z" fill="#FAFAFA"/>
<path transform="translate(1e3 1035)" d="m0 0 4 5v2l4 2-12 3-9-4-3-5 1-2 7 2 7-2z" fill="#F8F8F7"/>
<path transform="translate(771,1013)" d="m0 0h3l3 6 4-6h1v12l-5 5-3 7-2-3z" fill="#EAEAE6"/>
<path transform="translate(691,991)" d="m0 0 4 1 2 5 2 1-6 3-4 6-7-6-1-4 7-5z" fill="#E8E8E5"/>
<path transform="translate(395,802)" d="m0 0h1v46l3 16 1 6-2-1-4-13-1-7v-42z" fill="#F1F1EF"/>
<path transform="translate(878,994)" d="m0 0 5 1v10l4 13 4 4v5l-4 1-2-8-5-3-2-17z" fill="#100F10"/>
<path transform="translate(1245,994)" d="m0 0 4 2 2 5 1 13-17-17 2-1 6-1z" fill="#0D0C0D"/>
<path transform="translate(878,1027)" d="m0 0 6 4v6l-2 5-7 3-1 2h-7l4-3 2-1v-8l3-3z" fill="#100F10"/>
<path transform="translate(580,995)" d="m0 0 2 1 2 10v8l-4 8-2-2-2-9 2-12z" fill="#0D0C0D"/>
<path transform="translate(788,1036)" d="m0 0 5 2 9-1 4-1-2 4-10 6h-7l-6-2 6-7z" fill="#FBFBFA"/>
<path transform="translate(817 1e3)" d="m0 0 3 1 3 6h-4l1 17-6 1v-12l-3-5z" fill="#E9E9E6"/>
<path transform="translate(1039,803)" d="m0 0 1 4 1 7-1 22v54l-2-3v-81z" fill="#E8E8E4"/>
<path transform="translate(848,993)" d="m0 0 4 1 1 30 2 8h-4l-2-5 1-13-3-14-2-5z" fill="#F8F8F7"/>
<path transform="translate(674,1007)" d="m0 0 3 4 1 24-4-4-3-7v-9z" fill="#E8E8E4"/>
<path transform="translate(642,1009)" d="m0 0 3 4 4 7-1 6-2 6-3-3-5-7z" fill="#FAFAFA"/>
<path transform="translate(872,1036)" d="m0 0 2 1v6l-5 3h-2v2l-7-1-1-3v-7l9 1z" fill="#F9F9F8"/>
<path transform="translate(1122,998)" d="m0 0h1v7l3-1 3-3 1 3-5 5-4 9-4-3 2-7-7 4 2-5z" fill="#121112"/>
<path transform="translate(1259,798)" d="m0 0 9 1 2 3v34h-2l-1-25-3-7-2-1v-2l-3-1z" fill="#0D0C0D"/>
<path transform="translate(1242,1033)" d="m0 0 5 3 3 6-6 4-8 1v-4l-5-2v-1l9-1z" fill="#E7E7E3"/>
<path transform="translate(1131,992)" d="m0 0 3 1 4 5v2l-8 3-2-1-3 4-3-1 1-8z" fill="#E7E7E4"/>
<path transform="translate(1180,883)" d="m0 0h9l1 3-8 5-3 2h-5l-2-4-5-2v-1l11-2z" fill="#E6E6E2"/>
<path transform="translate(1654,800)" d="m0 0h5l-1 6-3 7v20h-3l-1-5 1-22z" fill="#EAEAE7"/>
<path transform="translate(588,858)" d="m0 0 2 4 3 16-6 8-6 5-5-1-3-2 2-1 6-1 5-2 1-3z" fill="#F2F2F0"/>
<path transform="translate(1478,1028)" d="m0 0h2l1 4v11l-7 4-6 1 6-9 3-9z" fill="#262526"/>
<path transform="translate(1867,798)" d="m0 0 8 1 2 3v11l-3 4h-3l1-4h2l-7-11z" fill="#F1F1EF"/>
<path transform="translate(1304,1009)" d="m0 0 2 2v6l-7 8-6 5-2-1 4-6 3-8z" fill="#CCCCCB"/>
<path transform="translate(1622,799)" d="m0 0h6l4 4 1 10v13h-1l-1-7-1 5h-1l-1-13-3-7z" fill="#E7E7E3"/>
<path transform="translate(654,985)" d="m0 0 3 1 1 5-4 12-4-4-1-9z" fill="#F6F6F4"/>
<path transform="translate(1164,1010)" d="m0 0 2 3v10l-4 10-3 2 2-22z" fill="#F7F7F6"/>
<path transform="translate(1453,1026)" d="m0 0 1 2 4 2-1 7-5 4-4-2-1-5z" fill="#0D0C0D"/>
<path transform="translate(1352,993)" d="m0 0h14v3l-9 8-3 3 1-12h-9v-1z" fill="#C8C8C5"/>
<path transform="translate(655,977)" d="m0 0h4l2 7-2 4h-2l-1-2-4 2-5 3 2-7z" fill="#100F10"/>
<path transform="translate(1950,801)" d="m0 0 3 4v19l-1 10h-3z" fill="#F5F5F4"/>
<path transform="translate(989,993)" d="m0 0h11l-2 5-4 4-5-1-5-7z" fill="#F9F9F8"/>
<path transform="translate(1551,876)" d="m0 0 2 1 2 16h-10l1-4z" fill="#E6E6E2"/>
<path transform="translate(1821,883)" d="m0 0 3 1-7 7-4 2h-19l1-2h6l8-3 7-1z" fill="#E8E8E4"/>
<path transform="translate(363,799)" d="m0 0 2 1-2 7-2 15-1 14h-1l-1-30 1-6z" fill="#F9F9F8"/>
<path transform="translate(567,976)" d="m0 0h2l7 10-1 4-5 4-4-16z" fill="#111011"/>
<path transform="translate(888,884)" d="m0 0 7 1v2l-13 5h-13l1-2 16-5z" fill="#E7E7E3"/>
<path transform="translate(932,882)" d="m0 0 16 6 6 3-2 4-11-4-9-7z" fill="#E8E8E4"/>
<path transform="translate(277,845)" d="m0 0 15 1 4 1v3h-25l1-4z" fill="#EBEBE8"/>
<path transform="translate(584,1011)" d="m0 0h1l3 14-4 8-2-3-2-5 1-8z" fill="#F8F8F7"/>
<path transform="translate(1286,1034)" d="m0 0 5 4 7 2-6 7-5-1-3-2 1-8z" fill="#F6F6F5"/>
<path transform="translate(1421,1013)" d="m0 0 1 3-6 16h-2l-1-3h-2l1-5 5-8z" fill="#F8F8F8"/>
<path transform="translate(1468,1012)" d="m0 0h2l1 6-4 6-5 3h-2l1-6 5-8z" fill="#D6D6D2"/>
<path transform="translate(446,885)" d="m0 0h3l3 6h-5v-2l-6 3-9 1-10-2-1-2h14l9-2z" fill="#E7E7E3"/>
<path transform="translate(591,856)" d="m0 0h3l1 3v14l-3 4-3-15 1-5z" fill="#0F0E0F"/>
<path transform="translate(1408,1032)" d="m0 0 4 2 1 4-5 6-8-1 6-9z" fill="#F8F8F7"/>
<path transform="translate(1342,800)" d="m0 0 2 1 1 5v24l-1 6h-1l-1-10z" fill="#FBFBFB"/>
<path transform="translate(941,985)" d="m0 0h1l2 11 1 3 3 2-1 6-1 2-5 1z" fill="#E6E6E2"/>
<path transform="translate(1632,855)" d="m0 0h1v34l-2-3-1-9v-20z" fill="#F2F2F0"/>
<path transform="translate(1010,1009)" d="m0 0 2 3 2 6 3-1v8l-3 4-3-1-1-2z" fill="#E6E6E2"/>
<path transform="translate(1134,991)" d="m0 0h12l-1 5-2 4h-5l-5-7z" fill="#F8F8F7"/>
<path transform="translate(535,886)" d="m0 0 5 1h11l5-1v4l-5 1h-13l-11-1v-1l7-2z" fill="#ECECE9"/>
<path transform="translate(855,801)" d="m0 0 6 1 8 6 3 4-4 1-7-4-6-5z" fill="#F5F5F4"/>
<path transform="translate(813,996)" d="m0 0 5 3-3 5-3 4-4-2-3-2v-3z" fill="#0D0C0D"/>
<path transform="translate(1303,991)" d="m0 0 5 1 6 5-4 2-4 6-2-3-2-4z" fill="#F7F7F6"/>
<path transform="translate(1257,798)" d="m0 0h2l3 3-1 4-8 4-2 2v-8l2-4z" fill="#C0BFBE"/>
<path transform="translate(186,799)" d="m0 0 4 1 1 1v14l-4-2-2-3v-8z" fill="#F9F9F8"/>
<path transform="translate(1231,990)" d="m0 0h8l7 3-3 3-6 1-6-1 1-2-2-1z" fill="#EBEBEA"/>
<path transform="translate(1077,979)" d="m0 0 9 1 2 2-4 4-4-1-4 9h-1v-12z" fill="#EAEAE7"/>
<path transform="translate(1203,886)" d="m0 0 18 2 8-1-4 4-6 2-5-1-10-4z" fill="#E6E6E2"/>
<path transform="translate(996,800)" d="m0 0 6 2 9 6 6 9-1 2-10-10-6-4-4-3z" fill="#D4D4D2"/>
<path transform="translate(1352,1008)" d="m0 0 1 3-3 12-1 14h-1l-2-9v-11z" fill="#F5F5F4"/>
<path transform="translate(1456,993)" d="m0 0 2 1-2 2-3 7-10 8-1-2 6-10z" fill="#F6F6F4"/>
<path transform="translate(106,880)" d="m0 0 8 8 5 2-2 2h-8l-4-3v-7z" fill="#FAFAFA"/>
<path transform="translate(1091,864)" d="m0 0 4 2 23 23-2 1-8-7-17-17z" fill="#F5F5F4"/>
<path transform="translate(1316 1e3)" d="m0 0 3 4 2 5v6l-5-1-3 3 2-14h-2v-2z" fill="#F2F2F0"/>
<path transform="translate(623,1019)" d="m0 0 4 3 5 14 2 4v3l-4-2-6-16z" fill="#F6F6F5"/>
<path transform="translate(718,852)" d="m0 0h1l1 24 4 14 1 3-5-1-1-1-1-10z" fill="#F2F2F0"/>
<path transform="translate(1371,993)" d="m0 0 15 1 4 2-1 3-7 3-4-6-9-1z" fill="#F9F9F9"/>
<path transform="translate(1054,849)" d="m0 0h1v43l-5 1 2-7 1-12z" fill="#E6E6E2"/>
<path transform="translate(690,1038)" d="m0 0 3 1h10l-3 5-2 4-6-1z" fill="#E6E6E2"/>
<path transform="translate(888,1029)" d="m0 0 3 1-3 8-5 5-6 3-3-1 4-3h4l1-5h2v-6z" fill="#F6F6F4"/>
<path transform="translate(788,992)" d="m0 0h14l-2 5-4 3-4-1-2-4z" fill="#E6E6E2"/>
<path transform="translate(1147,1034)" d="m0 0v3l-3 4-7 3h-3l-2-2v-5h10z" fill="#E6E6E2"/>
<path transform="translate(1762,844)" d="m0 0 2 3 2 22v10l-2-3-2-15z" fill="#0D0C0D"/>
<path transform="translate(919,1030)" d="m0 0h1v10l-3 5-5-1-2-4 5-4 3 1z" fill="#E3E3E0"/>
<path transform="translate(1123,1028)" d="m0 0 5 5v4l-7 3-3-3 2-5z" fill="#0D0C0D"/>
<path transform="translate(1769,873)" d="m0 0h1l2 7 6 10 2 2-6-1-7-8v-2l2-1z" fill="#ADADAB"/>
<path transform="translate(701,1013)" d="m0 0 5 3-1 5-11 9-2-1 6-6 2-9z" fill="#C6C6C4"/>
<path transform="translate(878,993)" d="m0 0h7l4 5-4 10-1-3h-2v-10z" fill="#F7F7F6"/>
<path transform="translate(1229,1009)" d="m0 0 5 2 3 4v7l-4 2-3-10-2-3z" fill="#F9F9F9"/>
<path transform="translate(1847,881)" d="m0 0 2 1v7l-4 4h-6l5-9z" fill="#F9F9F8"/>
<path transform="translate(1329,800)" d="m0 0h2l-2 10-1 44h-1v-50z" fill="#EBEBE8"/>
<path transform="translate(393,831)" d="m0 0h1l1 13 4 20 1 6-2-1-4-13-1-7z" fill="#F7F7F6"/>
<path transform="translate(1392 1e3)" d="m0 0 2 3 3 15-1 4-3-3-2-8z" fill="#F5F5F3"/>
<path transform="translate(1570,801)" d="m0 0h6l-1 3 9 1 3-2 3 1-3 4-15-3-7-1 2-2z" fill="#E9E9E6"/>
<path transform="translate(1312,1018)" d="m0 0h1l2 6 2 1-1 3-2-1 4 6-2 5-2-2-5-1v-1h6l-2-6h-2l-1 2z" fill="#E6E6E2"/>
<path transform="translate(1252,1019)" d="m0 0 2 2 1 5v7l-2 1-3-3-1-8z" fill="#F7F7F6"/>
<path transform="translate(215,799)" d="m0 0h9l2 8-3 2-8-9z" fill="#F7F7F6"/>
<path transform="translate(1295,990)" d="m0 0h8v8l-8-1z" fill="#0D0C0D"/>
<path transform="translate(139,799)" d="m0 0 9 1 9 7-2 1-9-4-8-2z" fill="#F1F1EF"/>
<path transform="translate(602,1021)" d="m0 0h2l-1 5-7 16-4 2 9-21z" fill="#F2F2F0"/>
<path transform="translate(505,837)" d="m0 0 4 4v2l4 2 10 7-4 1-6-3-6-7z" fill="#F0F0ED"/>
<path transform="translate(1116,799)" d="m0 0h1v15l-1 18h-1l-1-27z" fill="#F1F1EF"/>
<path transform="translate(1822,799)" d="m0 0h7l3 11-1 3-7-9z" fill="#E8E8E5"/>
<path transform="translate(1223,799)" d="m0 0h8l2 6v7l-3-1-2-8-5-3z" fill="#F5F5F4"/>
<path transform="translate(704,799)" d="m0 0h8l4 4-2 5-5-1-1-5z" fill="#F4F4F3"/>
<path transform="translate(1744,881)" d="m0 0h2v10l-3 2h-6z" fill="#0D0C0D"/>
<path transform="translate(815 1e3)" d="m0 0h2l1 15-3 3-1-10-3-5z" fill="#FDFDFD"/>
<path transform="translate(1897,882)" d="m0 0 4 1 4 8-1 2-5-1-2-4z" fill="#F6F6F5"/>
<path transform="translate(376,858)" d="m0 0h1v30l-2 3-1-10z" fill="#F2F2F0"/>
<path transform="translate(309,801)" d="m0 0 6 1 3 3-1 1h-6l2-1v-2l-3 3-10-1v-3h8z" fill="#E2E4DD"/>
<path transform="translate(1146,992)" d="m0 0 3 1 1 6 2 8-8-6-1-3z" fill="#BDBDBA"/>
<path transform="translate(581,799)" d="m0 0 4 1 3 5-1 11-4 1 1-3v-8z" fill="#F8F8F7"/>
<path transform="translate(1249 1e3)" d="m0 0 2 1 1 13-5-5-3-4z" fill="#F4F4F3"/>
<path transform="translate(831,885)" d="m0 0 8 3 11 2-3 3-9-1-7-5z" fill="#E9E9E6"/>
<path transform="translate(1887,845)" d="m0 0 9 2 5-2 4 1-5 5-8-1z" fill="#ECECE9"/>
<path transform="translate(1546,822)" d="m0 0h1l1 15h-3l-3-5 2-6z" fill="#F2F2F0"/>
<path transform="translate(1187,802)" d="m0 0h13l13 6-2 2-13-5-10-1z" fill="#E6E6E2"/>
<path transform="translate(1112,1025)" d="m0 0 8 1 1 6-4 4-5-10z" fill="#FBFBFB"/>
<path transform="translate(705,992)" d="m0 0 5 2 4 4-5 4-2 4-2-3 1-1z" fill="#F3F3F1"/>
<path transform="translate(1680,838)" d="m0 0 15 6 1 2-7 2-9-9z" fill="#E6E6E2"/>
<path transform="translate(1390,1023)" d="m0 0h5l3 3-2 9-3-4-3-6z" fill="#F2F2F0"/>
<path transform="translate(504,877)" d="m0 0 3 4 2 6-4 5-2-3v-9z" fill="#F0F0EE"/>
<path transform="translate(469,857)" d="m0 0h2v11l-3 13-2-4 1-5z" fill="#EFEFEC"/>
<path transform="translate(1266,878)" d="m0 0h2v2l5 2 6 8-6-2-7-6z" fill="#F4F4F3"/>
<path transform="translate(1697,848)" d="m0 0 4 5 3 10-7-6-2-3z" fill="#F5F5F4"/>
<path transform="translate(1449,882)" d="m0 0h1v11h-7l1-5z" fill="#F7F7F6"/>
<path transform="translate(471,800)" d="m0 0 2 4-2 10-3-1v-11z" fill="#FAFAFA"/>
<path transform="translate(1080,1034)" d="m0 0 2 4h5l1 5-4 1-4-2-1-4z" fill="#FEFEFE"/>
<path transform="translate(970,882)" d="m0 0h4l-1 4-1 5-3-1-1-2-5-3 3-2z" fill="#E6E6E2"/>
<path transform="translate(1021,1021)" d="m0 0h1v11l-2 6-2-4v-8z" fill="#E6E6E2"/>
<path transform="translate(1743,876)" d="m0 0h1v7l-6 9-4 1 5-7 2-9z" fill="#E6E6E2"/>
<path transform="translate(1246,1038)" d="m0 0 3 1 1 3-6 4-8 1 3-4h4l1-3h2z" fill="#FAFAFA"/>
<path transform="translate(909,879)" d="m0 0h2l1 7-1 6-4-4-1-5z" fill="#F6F6F4"/>
<path transform="translate(851,1014)" d="m0 0h1l2 14 1 4h-4l-2-5z" fill="#EBEBE8"/>
<path transform="translate(1419,993)" d="m0 0 5 1 1 3-5 3-5 4 2-8z" fill="#F5F5F4"/>
<path transform="translate(993,885)" d="m0 0h14l-5 5-3 1-1-3-5-2z" fill="#F0F0ED"/>
<path transform="translate(249,874)" d="m0 0 2 1 2 12 2 5-4-1-2-3z" fill="#F6F6F4"/>
<path transform="translate(1622,799)" d="m0 0h6l4 4v7l-4-5-4-2z" fill="#FCFCFC"/>
<path transform="translate(910,1019)" d="m0 0 2 1 2 5-1 9h-3z" fill="#E6E6E2"/>
<path transform="translate(1222,859)" d="m0 0 4 4 1 2v8l-4-4-1-2z" fill="#E7E7E3"/>
<path transform="translate(272,846)" d="m0 0 14 1-3 3h-12z" fill="#F7F7F6"/>
<path transform="translate(1876,820)" d="m0 0h1v11l-4 2-1-5 3-7z" fill="#F3F3F1"/>
<path transform="translate(1368,800)" d="m0 0h2l-1 13-2 2-2-10 1-4z" fill="#E7E7E3"/>
<path transform="translate(1525,799)" d="m0 0 5 1 3 3v11h-1l-1-10h-5z" fill="#E9E9E6"/>
<path transform="translate(1131,992)" d="m0 0 3 1 4 5v2l-5 1-4-6v-2z" fill="#0D0C0D"/>
<path transform="translate(1480,882)" d="m0 0 2 3 5 6v2h-5l-3-4z" fill="#F8F8F8"/>
<path transform="translate(1937,798)" d="m0 0h5l-2 4-4 10h-1v-8z" fill="#F7F7F6"/>
<path transform="translate(1214,1010)" d="m0 0h2v2l5 2 7 6-1 2-7-5-6-3z" fill="#EDEDEB"/>
<path transform="translate(1604,799)" d="m0 0h6l3 4v3l-4-1-7-4z" fill="#F4F4F2"/>
<path transform="translate(719,1017)" d="m0 0 4 2-1 9h-2l-2-4z" fill="#FEFEFE"/>
<path transform="translate(621,986)" d="m0 0 5 10-1 5h-2l-2-5z" fill="#F2F2F0"/>
<path transform="translate(1091,982)" d="m0 0 2 1v21h-1l-2-16v-5z" fill="#EFEFED"/>
<path transform="translate(107,817)" d="m0 0h1l-1 11 2 5-1 5-2-2-1-4v-8z" fill="#F6F6F5"/>
<path transform="translate(328,800)" d="m0 0 6 1 5 5v3l-5-2z" fill="#F9F9F8"/>
<path transform="translate(1782,799)" d="m0 0 4 1v3h-5v-2l-8 5h-2l2-4z" fill="#EDEDEA"/>
<path transform="translate(904,799)" d="m0 0h4l1 2v14l-2-2-2-11z" fill="#F7F7F6"/>
<path transform="translate(642,1009)" d="m0 0 3 4 4 7-1 3-3-1v-2l-2-1-1-3z" fill="#E6E6E2"/>
<path transform="translate(1322,888)" d="m0 0 7 3v2h-13l3-4z" fill="#E6E6E2"/>
<path transform="translate(1341,882)" d="m0 0 5 1-1 6-4 2-1-8z" fill="#FAFAF9"/>
<path transform="translate(1802,808)" d="m0 0 4 2 4 7-7-1z" fill="#F2F2F0"/>
<path transform="translate(848,1035)" d="m0 0 3 1 5 9-5-2-4-4z" fill="#F3F3F1"/>
<path transform="translate(978 1e3)" d="m0 0 4 1-1 5-1 1h-5l1-5z" fill="#F4F4F3"/>
<path transform="translate(910,975)" d="m0 0 4 2 2 3-1 4-4-1z" fill="#888785"/>
<path transform="translate(1280,887)" d="m0 0 10 2 2 1v2h-7l-4-1z" fill="#F3F3F1"/>
<path transform="translate(221,881)" d="m0 0h1l1 11h-6l2-8z" fill="#EBEBE8"/>
<path transform="translate(1875,855)" d="m0 0 6 1 6 5-2 1-9-3z" fill="#EFEFED"/>
<path transform="translate(1845,799)" d="m0 0 4 4v13l-2 1z" fill="#E9E9E6"/>
<path transform="translate(684,800)" d="m0 0h1v6l-3 6h-2l-1-4 4-7z" fill="#F8F8F7"/>
<path transform="translate(252,799)" d="m0 0h2v7l-3 7h-1v-8z" fill="#F7F7F6"/>
<path transform="translate(628,1028)" d="m0 0 2 2 4 10v3l-4-2-2-9z" fill="#E6E6E2"/>
<path transform="translate(820,1025)" d="m0 0 4 2-2 6-3 3-1-8z" fill="#EEEEEB"/>
<path transform="translate(359,868)" d="m0 0h1l1 15 2 9-4-4z" fill="#FAFAF9"/>
<path transform="translate(212,855)" d="m0 0 2 4 4 11-1 2-5-6z" fill="#EAEAE6"/>
<path transform="translate(1166,799)" d="m0 0v3l-6 5-2 2-2-1v-3z" fill="#F2F2F0"/>
<path transform="translate(1165,817)" d="m0 0 1 2-1 9v5h-2l-1-2v-9z" fill="#E8E8E5"/>
<path transform="translate(505,817)" d="m0 0 2 3 1 6-1 2-4-2 1-8z" fill="#F4F4F2"/>
<path transform="translate(879,1023)" d="m0 0 7 1-2 4-4 1-2-3z" fill="#FBFBFA"/>
<path transform="translate(1080,1006)" d="m0 0 2 3 1 5-3 4-2-6 1-5z" fill="#FEFEFE"/>
<path transform="translate(189,880)" d="m0 0 4 2-5 6-3 1 1-5z" fill="#F2F2F0"/>
<path transform="translate(1767,868)" d="m0 0h1l2 13h-4v-12z" fill="#F6F6F4"/>
<path transform="translate(306,845)" d="m0 0h8l-3 6-3 1z" fill="#F3F3F1"/>
<path transform="translate(1464,802)" d="m0 0 4 1 9 2v1h-14l-2-1v-2z" fill="#E6E6E2"/>
<path transform="translate(1211,1023)" d="m0 0 7 6 1 2h-4l-2 4-2-6z" fill="#EDEDEA"/>
<path transform="translate(941,985)" d="m0 0h1l2 14-1 5h-2z" fill="#F1F1EF"/>
<path transform="translate(535,886)" d="m0 0 6 2 2 2h-16v-1l7-2z" fill="#F2F2F0"/>
<path transform="translate(1198,838)" d="m0 0h17l7 1-4 2-20-2z" fill="#E6E6E2"/>
<path transform="translate(988,814)" d="m0 0 6 3 8 7-1 2-7-6-8-3z" fill="#EFEFED"/>
<path transform="translate(1262,803)" d="m0 0 3 1 1 2v9l-2 3v-10h-2z" fill="#F9F9F8"/>
<path transform="translate(690,1038)" d="m0 0 9 3-1 3-4 1-3-2z" fill="#F9F9F8"/>
<path transform="translate(979,1037)" d="m0 0 4 1 3 7-5-2-4-5z" fill="#F6F6F5"/>
<path transform="translate(967,799)" d="m0 0 4 2 6 5-1 5-3-4v-2l-4-2z" fill="#E7E7E3"/>
<path transform="translate(804,1036)" d="m0 0 2 1-5 5-7 4-4-1 6-3 4-3h2v-2z" fill="#E6E6E2"/>
<path transform="translate(1017,998)" d="m0 0h1l1 7 3 2v6l-4-2-1-5z" fill="#E6E6E2"/>
<path transform="translate(655,977)" d="m0 0 2 1-7 10-2 1 1-5z" fill="#F7F7F5"/>
<path transform="translate(584,884)" d="m0 0 2 1-5 6-5-1-3-2 2-1 6-1z" fill="#F0F0ED"/>
<path transform="translate(588,847)" d="m0 0 4 4 1 5-4 2z" fill="#F3F3F2"/>
<path transform="translate(541,803)" d="m0 0 4 2 3 2-1 4-5-2z" fill="#E6E6E2"/>
<path transform="translate(1413,1022)" d="m0 0 1 3h2l1 4-1 3h-2l-1-3h-2l1-5z" fill="#E6E6E2"/>
<path transform="translate(947,975)" d="m0 0h3v16h-1z" fill="#F2F2F0"/>
<path transform="translate(112,887)" d="m0 0 7 3-2 2h-8v-3h3z" fill="#E6E6E2"/>
<path transform="translate(864,875)" d="m0 0h13v1l-10 3-3 1z" fill="#E6E6E2"/>
<path transform="translate(958,805)" d="m0 0 5 1 1 3h-7l-3-1v-2z" fill="#E7E7E3"/>
<path transform="translate(521,800)" d="m0 0 7 1-2 5-4 1-2-6z" fill="#E6E6E2"/>
<path transform="translate(1010,1020)" d="m0 0 5 2-1 5-4-1z" fill="#FCFCFC"/>
<path transform="translate(1481 1e3)" d="m0 0 4 1v3l5 1-1 2-7 1 1-7z" fill="#E6E6E2"/>
<path transform="translate(1303,991)" d="m0 0h1l1 7 4 1-2 5-2 1-3-7z" fill="#E6E6E2"/>
<path transform="translate(614,996)" d="m0 0h4l1 6-3-3-4 2-4 4 1-4z" fill="#EEEEEB"/>
<path transform="translate(1076,981)" d="m0 0 2 1v7l-2 5h-1v-12z" fill="#F9F9F8"/>
<path transform="translate(855,885)" d="m0 0 4 1 1 4h-10z" fill="#E7E7E3"/>
<path transform="translate(315,882)" d="m0 0h2l2 8-6-2z" fill="#F4F4F2"/>
<path transform="translate(291,867)" d="m0 0 4 2 9 8-1 2-10-9z" fill="#F4F4F2"/>
<path transform="translate(1255,862)" d="m0 0 6 1-1 5-3 1z" fill="#F2F2F0"/>
<path transform="translate(919,1037)" d="m0 0 1 3-3 5-3-3-2-1 4-2z" fill="#FEFEFE"/>
<path transform="translate(1767,858)" d="m0 0h1l1 7v8l-2-4h-2v-7z" fill="#E6E6E3"/>
<path transform="translate(327,818)" d="m0 0h2l-1 9-2 2-1-9z" fill="#E6E6E2"/>
<path transform="translate(145,800)" d="m0 0 5 1 7 6-2 1-9-4 1-2z" fill="#E6E6E2"/>
<path transform="translate(733,799)" d="m0 0h14l-2 3-8-1z" fill="#F2F2F1"/>
<path transform="translate(1146,992)" d="m0 0 3 1-2 5-1 3-3-1 2-6z" fill="#0D0C0D"/>
<path transform="translate(1826,884)" d="m0 0 2 2v7l-3-1-1-6z" fill="#E9E9E6"/>
<path transform="translate(124,800)" d="m0 0 4 1-4 3-8 1 5-4z" fill="#F6F6F4"/>
<path transform="translate(1313,1029)" d="m0 0 3 1 2 5-3 3-1-2-5-1v-1h6z" fill="#DDDDD9"/>
<path transform="translate(683,995)" d="m0 0 3 3v5l-4-2-1-4z" fill="#FAFAF9"/>
<path transform="translate(1371,993)" d="m0 0 12 1v3l-5-1-9-1z" fill="#E9E9E6"/>
<path transform="translate(1459,1027)" d="m0 0" fill="#0D0C0D"/>
</svg>
